<svg xmlns="http://www.w3.org/2000/svg" id="Layer_1" viewBox="0 0 1107.55 544.72" preserveAspectRatio="xMidYMid meet" fill="#FB82D1" fill-opacity="1" role="img"><polygon points="558.98 207.42 583.32 107.45 571.16 94.4 508.57 103.97 484.22 203.94 496.39 216.97 558.98 207.42"></polygon><polygon points="139.09 431.7 114.75 531.68 126.93 544.72 189.52 535.15 213.85 435.18 201.69 422.14 139.09 431.7"></polygon><polygon points="664.17 191.76 688.52 91.79 676.34 78.75 613.76 88.32 589.41 188.29 601.58 201.33 664.17 191.76"></polygon><path d="M643.76,219.9l-196.4,28.16,30.82-124.18c-5.72-6.14-7.55-8.11-13.28-14.25l-37.2,6.49-100.1,150.14-287.65,44.07,6.39-26.71,269.21-39.7,74.76-110.41-5.22-11.3-294.7,43.47-54.76,60.85L0,372.58l40.86,48.69,326-49.56,39.12-141.7.14-.45,21.37-3.3-34.54,141.11,146.34-20.98-35.07,140.95,554.64-82.15,48.69-199.08-40.86-50.42-356.44,55.21,3.3-13.8,156.66-71.05,25.21-115.62-11.3-10.43-166.04,74.42-47.82,198.21,40.86,48.69,356.03-53.21-6.43,26.3-502.11,75.32,6.77-27.07,64.02-9.18,25.2-101.57-10.84-11.99h-.01Z"></path><polygon points="427.72 388.24 403.37 488.21 415.54 501.25 478.13 491.69 502.48 391.71 490.31 378.67 427.72 388.24"></polygon><polygon points="322.52 403.89 298.18 503.86 310.36 516.89 372.94 507.34 397.28 407.37 385.12 394.32 322.52 403.89"></polygon></svg>